<mxfile host="app.diagrams.net" modified="2024-05-04T10:54:28.815Z" agent="Mozilla/5.0 (Windows NT 10.0; Win64; x64) AppleWebKit/537.36 (KHTML, like Gecko) Chrome/122.0.0.0 YaBrowser/24.4.0.0 Safari/537.36" version="24.3.1" etag="UE7zhJZCsiPK0RgMQ1aP" type="github">
  <diagram name="Страница — 1" id="-gfhNMuMHV1DPvXStUE0">
    <mxGraphModel>
      <root>
        <mxCell id="0" />
        <mxCell id="1" parent="0" />
      </root>
    </mxGraphModel>
  </diagram>
</mxfile>
